<svg height="467pt" preserveAspectRatio="xMidYMid meet" viewBox="0 0 562 467" width="562pt" xmlns="http://www.w3.org/2000/svg"><g transform="matrix(.1 0 0 -.1 0 467)"><path d="m787 4193c-11-11-8-1577 3-1698 52-554 360-1056 849-1385 308-206 685-331 1079-356l112-7v834c0 975-2 1005-91 1274-233 707-890 1227-1677 1329-128 16-264 21-275 9z"/><path d="m4525 3553c-374-51-687-206-954-474-153-152-265-313-366-522-104-215-168-441-194-689-6-55-11-318-11-609v-512l93 7c205 16 391 67 582 162 527 260 895 797 992 1451 15 101 17 196 18 653v535l-65 1c-36 1-78 0-95-3z"/></g></svg>